<?xml version="1.0" encoding="UTF-8" standalone="no"?>
<svg
   width="128"
   height="128"
   version="1.1"
   id="svg6"
   sodipodi:docname="icon.svg"
   inkscape:version="1.4.2 (f4327f4, 2025-05-13)"
   xmlns:inkscape="http://www.inkscape.org/namespaces/inkscape"
   xmlns:sodipodi="http://sodipodi.sourceforge.net/DTD/sodipodi-0.dtd"
   xmlns="http://www.w3.org/2000/svg"
   xmlns:svg="http://www.w3.org/2000/svg">
  <defs
     id="defs6" />
  <sodipodi:namedview
     id="namedview6"
     pagecolor="#ffffff"
     bordercolor="#000000"
     borderopacity="0.25"
     inkscape:showpageshadow="2"
     inkscape:pageopacity="0.0"
     inkscape:pagecheckerboard="0"
     inkscape:deskcolor="#d1d1d1"
     inkscape:zoom="6.4468251"
     inkscape:cx="60.417336"
     inkscape:cy="65.07079"
     inkscape:window-width="2560"
     inkscape:window-height="1369"
     inkscape:window-x="-8"
     inkscape:window-y="-8"
     inkscape:window-maximized="1"
     inkscape:current-layer="svg6" />
  <rect
     width="124"
     height="124"
     x="2"
     y="2"
     fill="#363d52"
     stroke="#212532"
     stroke-width="4"
     rx="14"
     id="rect1"
     style="display:none" />
  <path
     style="display:inline;fill:#000000;fill-opacity:1;stroke:none;stroke-width:4.2;stroke-linejoin:round;stroke-dasharray:none"
     d="m 3.1023022,125.33301 4.4741046,-23.75239 11.4448882,4.24719 3.862654,3.95443 7.672647,-3.88654 -8.587005,-6.271638 -3.121162,5.256908 L 7.9528646,109.14861 5.8943742,71.04272 68.017977,7.3679678 123.54919,55.453653 59.098858,123.78186 Z"
     id="path6"
     sodipodi:nodetypes="ccccccccccccc" />
  <g
     fill="#ffffff"
     transform="matrix(0.06204746,-0.070055,0.0667831,0.06555614,-2.9371233,66.733176)"
     id="g4"
     style="display:inline">
    <path
       d="m 105,673 v 33 q 407,354 814,0 v -33 z"
       id="path1" />
    <path
       fill="#478cbf"
       d="m 105,673 152,14 q 12,1 15,14 l 4,67 132,10 8,-61 q 2,-11 15,-15 h 162 q 13,4 15,15 l 8,61 132,-10 4,-67 q 3,-13 15,-14 L 919,673 V 427 q 30,-39 56,-81 -35,-59 -83,-108 -43,20 -82,47 -40,-37 -88,-64 7,-51 8,-102 -59,-28 -123,-42 -26,43 -46,89 -49,-7 -98,0 -20,-46 -46,-89 -64,14 -123,42 1,51 8,102 -48,27 -88,64 -39,-27 -82,-47 -48,49 -83,108 26,42 56,81 z m 0,33 v 39 c 0,276 813,276 814,0 v -39 l -134,12 -5,69 q -2,10 -14,13 l -162,11 q -12,0 -16,-11 L 578,735 H 446 l -10,65 q -4,11 -16,11 L 258,800 q -12,-3 -14,-13 l -5,-69 z"
       id="path2" />
    <path
       d="m 483,600 c 0,34 58,34 58,0 v -86 c 0,-34 -58,-34 -58,0 z"
       id="path3" />
    <circle
       cx="725"
       cy="526"
       r="90"
       id="circle3" />
    <circle
       cx="299"
       cy="526"
       r="90"
       id="circle4" />
  </g>
  <g
     fill="#414042"
     transform="matrix(0.06204746,-0.070055,0.0667831,0.06555614,-5.6529204,66.54284)"
     id="g6"
     style="display:inline">
    <circle
       cx="307"
       cy="532"
       r="60"
       id="circle5" />
    <circle
       cx="717"
       cy="532"
       r="60"
       id="circle6" />
  </g>
  <path
     style="display:inline;fill:none;fill-opacity:1;stroke:#3563a9;stroke-width:10;stroke-linejoin:round;stroke-dasharray:none;stroke-opacity:1"
     d="M 5.1494893,122.99564 V 71.032084 L 68.824243,5.0306047 122.80431,55.132785 58.198858,124.23657 Z"
     id="path6-9"
     sodipodi:nodetypes="cccccc" />
  <ellipse
     style="fill:none;fill-opacity:1;stroke:#3563a9;stroke-width:5;stroke-linejoin:round;stroke-dasharray:none;stroke-opacity:1"
     id="path8"
     cx="24.120399"
     cy="104.62514"
     rx="4.7310109"
     ry="4.886126" />
</svg>
